<svg width="100" height="100" viewBox="0 0 100 100" fill="none" xmlns="http://www.w3.org/2000/svg">
<g clip-path="url(#clip0_416_2)">
<path d="M30.75 26H40L61.75 79.125H62.5L84.25 26H93.5V90H86.25V41.375H85.625L65.625 90H58.625L38.625 41.375H38V90H30.75V26Z" fill="url(#paint0_linear_416_2)"/>
<path d="M55.5 25C54.8125 22.8958 53.9063 21.0104 52.7812 19.3438C51.6771 17.6562 50.3542 16.2187 48.8125 15.0312C47.2917 13.8437 45.5625 12.9375 43.625 12.3125C41.6875 11.6875 39.5625 11.375 37.25 11.375C33.4583 11.375 30.0104 12.3542 26.9063 14.3125C23.8021 16.2708 21.3333 19.1562 19.5 22.9688C17.6667 26.7813 16.75 31.4583 16.75 37C16.75 42.5417 17.6771 47.2187 19.5313 51.0312C21.3854 54.8437 23.8958 57.7292 27.0625 59.6875C30.2292 61.6458 33.7917 62.625 37.75 62.625C41.4167 62.625 44.6458 61.8437 47.4375 60.2812C50.25 58.6979 52.4375 56.4687 54 53.5937C55.5833 50.6979 56.375 47.2917 56.375 43.375L58.75 43.875H39.5V37H63.875V43.875C63.875 49.1458 62.75 53.7292 60.5 57.625C58.2708 61.5208 55.1875 64.5417 51.25 66.6875C47.3333 68.8125 42.8333 69.875 37.75 69.875C32.0833 69.875 27.1042 68.5417 22.8125 65.875C18.5417 63.2083 15.2083 59.4167 12.8125 54.5C10.4375 49.5833 9.25 43.75 9.25 37C9.25 31.9375 9.92708 27.3854 11.2812 23.3437C12.6563 19.2812 14.5938 15.8229 17.0938 12.9688C19.5938 10.1146 22.5521 7.92708 25.9688 6.40625C29.3854 4.88541 33.1458 4.125 37.25 4.125C40.625 4.125 43.7708 4.63541 46.6875 5.65625C49.625 6.65625 52.2396 8.08333 54.5312 9.9375C56.8438 11.7708 58.7708 13.9687 60.3125 16.5312C61.8542 19.0729 62.9167 21.8958 63.5 25H55.5Z" fill="url(#paint1_linear_416_2)"/>
</g>
<defs>
<linearGradient id="paint0_linear_416_2" x1="43.5" y1="35.5" x2="72.0196" y2="95.6502" gradientUnits="userSpaceOnUse">
<stop stop-color="#560D78"/>
<stop offset="0.604167" stop-color="#AD4082"/>
<stop offset="1"/>
</linearGradient>
<linearGradient id="paint1_linear_416_2" x1="61" y1="47" x2="15" y2="84" gradientUnits="userSpaceOnUse">
<stop stop-color="#F1B753"/>
<stop offset="0.15625" stop-color="#B16505"/>
<stop offset="0.286458" stop-color="#FFEA77"/>
<stop offset="0.494792" stop-color="#F9CA3E"/>
<stop offset="1" stop-color="#F1A803"/>
</linearGradient>
<clipPath id="clip0_416_2">
<rect width="100" height="100" fill="white"/>
</clipPath>
</defs>
</svg>
